<svg width="306" height="392" viewBox="0 0 306 392" fill="none" xmlns="http://www.w3.org/2000/svg">
<path d="M0.5961 108.301L21.1188 143.847L216.898 89.7063L199.772 60.0434L59.2379 104.419L58.9548 103.929L184.545 30.0168L167.419 0.353951L0.5961 108.301Z" fill="url(#paint0_linear_1_5)"/>
<path d="M27.8816 153.906L35.7942 183.436L182.898 144.02L174.985 114.49L27.8816 153.906ZM195.766 108.922L203.678 138.452L233.208 130.539L225.296 101.009L195.766 108.922Z" fill="url(#paint1_linear_1_5)"/>
<path d="M50.9518 191.707L58.8643 221.237L254.091 168.927L246.178 139.397L50.9518 191.707Z" fill="url(#paint2_linear_1_5)"/>
<path d="M240.381 274.265C266.732 262.049 267.038 240.017 254.591 218.424C235.986 186.148 212.353 183.566 180.732 198.225L194.096 221.409C208.52 214.722 223.976 210.437 233.41 226.803C240.878 239.759 234.506 247.609 220.914 253.91C207.877 259.953 201.682 255.913 193.521 248.462L176.136 232.327C159.914 218.82 146.167 210.216 112.881 225.646C84.3108 238.891 78.0715 257.337 89.339 276.884C97.5932 291.204 110.308 297.407 128.809 297.184L129.071 297.638C115.04 305.007 115.01 316.542 121.299 327.452C124.051 332.225 128.482 335.644 131.849 337.827L151.266 328.826C150.187 328.174 148.992 326.712 148.075 325.12C145.979 321.484 149.4 316.442 154.947 313.87L240.381 274.265ZM164.329 280.141C141.341 288.095 124.631 289.327 116.115 274.553C110.219 264.324 117.323 254.695 129.805 248.908C140.9 243.765 146.602 246.42 154.824 251.537C154.824 251.537 172.792 270.297 182.563 273.832L164.329 280.141Z" fill="url(#paint3_linear_1_5)"/>
<path d="M275.647 268.859L106.647 361.071L93.5904 360.467C83.4147 359.677 80.0647 359.539 77.3539 349.422C76.4747 346.141 76.2157 342.986 75.8833 339.559L52.3687 345.86C52.8475 349.834 53.3996 354.082 54.4253 357.91C62.0108 388.407 69.1745 390.747 112.445 391.461L305.686 380.964L297.407 350.067L150.816 366.233L150.67 365.686L284.146 300.577L275.647 268.859Z" fill="url(#paint4_linear_1_5)"/>
<defs>
<linearGradient id="paint0_linear_1_5" x1="167" y1="-6.97706e-06" x2="53.5" y2="133.5" gradientUnits="userSpaceOnUse">
<stop stop-color="#41D1FF"/>
<stop offset="1" stop-color="#BD34FE"/>
</linearGradient>
<linearGradient id="paint1_linear_1_5" x1="252.5" y1="87" x2="37" y2="183" gradientUnits="userSpaceOnUse">
<stop stop-color="#41D1FF"/>
<stop offset="1" stop-color="#BD34FE"/>
</linearGradient>
<linearGradient id="paint2_linear_1_5" x1="92.2647" y1="55.945" x2="203.665" y2="386.864" gradientUnits="userSpaceOnUse">
<stop stop-color="#FFCD1A"/>
<stop offset="1" stop-color="#C80000"/>
</linearGradient>
<linearGradient id="paint3_linear_1_5" x1="92.2648" y1="55.945" x2="203.665" y2="386.864" gradientUnits="userSpaceOnUse">
<stop stop-color="#FFCD1A"/>
<stop offset="1" stop-color="#C80000"/>
</linearGradient>
<linearGradient id="paint4_linear_1_5" x1="92.2647" y1="55.9449" x2="203.665" y2="386.864" gradientUnits="userSpaceOnUse">
<stop stop-color="#FFCD1A"/>
<stop offset="1" stop-color="#C80000"/>
</linearGradient>
</defs>
</svg>
